<?xml version="1.0" encoding="utf-8"?>
<!-- Generator: Adobe Illustrator 16.0.0, SVG Export Plug-In . SVG Version: 6.00 Build 0)  -->
<!DOCTYPE svg PUBLIC "-//W3C//DTD SVG 1.1//EN" "http://www.w3.org/Graphics/SVG/1.1/DTD/svg11.dtd">
<svg version="1.1" id="Layer_1" xmlns="http://www.w3.org/2000/svg" xmlns:xlink="http://www.w3.org/1999/xlink" x="0px" y="0px"
	 width="210px" height="36px" viewBox="0 0 210 36" enable-background="new 0 0 210 36" xml:space="preserve">
<g>
	<defs>
		<rect id="SVGID_1_" y="0" width="210" height="36"/>
	</defs>
	<clipPath id="SVGID_2_">
		<use xlink:href="#SVGID_1_"  overflow="visible"/>
	</clipPath>
	<path clip-path="url(#SVGID_2_)" fill="#022A3A" d="M43.374,29.896h1.552c0.638,0,0.955-0.364,1.003-1.002l2.187-27.259h4.692
		l7.563,17.048c0.776,1.732,1.597,4.056,1.597,4.056h0.091c0,0,0.818-2.324,1.595-4.056l7.564-17.048h4.692l2.187,27.259
		c0.046,0.638,0.365,1.002,1.002,1.002h1.503v3.92h-4.055c-2.049,0-2.779-0.864-2.916-2.916l-1.324-17.002
		c-0.135-1.916-0.088-4.741-0.088-4.741h-0.092c0,0-0.91,3.008-1.687,4.741l-6.515,14.127H60.1l-6.519-14.127
		c-0.773-1.688-1.729-4.788-1.729-4.788h-0.093c0,0,0.046,2.872-0.09,4.788l-1.277,17.002c-0.134,2.052-0.864,2.916-2.959,2.916
		h-4.058V29.896z"/>
	<path clip-path="url(#SVGID_2_)" fill="#022A3A" d="M97.094,19.459h1.004v-0.229c0-4.057-1.504-5.514-5.104-5.514
		c-1.093,0-3.782,0.271-3.782,1.775v1.322h-4.146v-2.279c0-3.78,5.742-4.328,7.975-4.328c7.473,0,9.478,3.919,9.478,9.024v9.801
		c0,0.684,0.364,1.002,1.003,1.002h1.866v3.784h-4.146c-2.05,0-2.872-1.003-2.872-2.643c0-0.777,0.092-1.371,0.092-1.371h-0.092
		c0,0-1.822,4.562-7.336,4.562c-3.964,0-7.837-2.416-7.837-7.02C83.198,19.912,93.222,19.459,97.094,19.459 M91.991,30.809
		c3.738,0,6.153-3.921,6.153-7.34v-0.775h-1.14c-3.325,0-9.341,0.184-9.341,4.423C87.663,28.985,89.075,30.809,91.991,30.809"/>
	<path clip-path="url(#SVGID_2_)" fill="#022A3A" d="M110.398,15.538c0-0.685-0.365-1.005-1.001-1.005h-1.87v-3.779h4.329
		c2.051,0,2.916,0.863,2.916,2.915V29.03c0,0.684,0.364,1.002,1.002,1.002h1.868v3.784h-4.328c-2.052,0-2.916-0.865-2.916-2.917
		V15.538z"/>
	<path clip-path="url(#SVGID_2_)" fill="#022A3A" d="M114.792,4.423c0,1.52-1.232,2.753-2.755,2.753c-1.518,0-2.75-1.233-2.75-2.753
		c0-1.521,1.232-2.753,2.75-2.753C113.56,1.67,114.792,2.902,114.792,4.423"/>
	<path clip-path="url(#SVGID_2_)" fill="#022A3A" d="M122.7,15.538c0-0.685-0.363-1.005-1.003-1.005h-1.869v-3.779h4.238
		c1.961,0,2.918,0.863,2.918,2.549v0.867c0,0.729-0.092,1.321-0.092,1.321h0.092c0.91-2.006,3.646-5.286,8.657-5.286
		c5.466,0,7.929,2.961,7.929,8.842v9.983c0,0.684,0.364,1.002,1.003,1.002h1.867v3.784h-4.373c-2.052,0-2.917-0.865-2.917-2.917
		V20.052c0-3.239-0.64-5.792-4.329-5.792c-3.556,0-6.379,2.326-7.291,5.652c-0.319,0.912-0.409,1.96-0.409,3.1v10.805H122.7V15.538z
		"/>
	<path clip-path="url(#SVGID_2_)" fill="#022A3A" d="M153.73,29.896h0.637c0.818,0,1.229-0.182,1.503-1.002l10.069-27.259h4.784
		l10.074,27.259c0.271,0.82,0.726,1.002,1.501,1.002h0.685v3.921h-2.552c-2.282,0-3.009-0.546-3.735-2.643l-2.416-6.61h-11.85
		l-2.412,6.61c-0.776,2.097-1.504,2.643-3.783,2.643h-2.505V29.896z M173.14,20.735l-3.508-9.801
		c-0.592-1.688-1.274-4.512-1.274-4.512h-0.094c0,0-0.638,2.825-1.229,4.512l-3.511,9.801H173.14z"/>
	<path clip-path="url(#SVGID_2_)" fill="#022A3A" d="M195.6,10.206c5.333,0,7.11,3.554,7.11,3.554h0.092
		c0,0-0.092-0.683-0.092-1.551V6.422c0-0.686-0.366-1.003-1.002-1.003h-1.869V1.634h4.374c2.051,0,2.918,0.865,2.918,2.917V29.03
		c0,0.684,0.362,1.002,1.001,1.002H210v3.784h-4.237c-2.007,0-2.825-0.913-2.825-2.462c0-0.685,0.046-1.186,0.046-1.186h-0.092
		c0,0-1.914,4.195-7.565,4.195c-6.241,0-10.161-4.926-10.161-12.081C185.165,14.945,189.494,10.206,195.6,10.206 M202.846,22.238
		c0-4.102-2.143-8.206-6.563-8.206c-3.6,0-6.605,3.009-6.605,8.251c0,5.016,2.688,8.25,6.516,8.25
		C199.609,30.533,202.846,28.117,202.846,22.238"/>
	<path clip-path="url(#SVGID_2_)" fill="#00A8E1" d="M26.948,21.711c-0.987,2.362-2.887,4.247-5.259,5.215l3.188,7.7
		c4.589-1.901,7.974-5.484,9.736-9.739L26.948,21.711z"/>
	<path clip-path="url(#SVGID_2_)" fill="#022A3A" d="M34.613,11.114l-7.661,3.174c0.475,1.141,0.738,2.392,0.738,3.706
		c0,1.317-0.265,2.573-0.743,3.717l7.665,3.176C36.375,20.632,36.514,15.705,34.613,11.114"/>
	<path clip-path="url(#SVGID_2_)" fill="#BDC4C9" d="M18.048,27.64c-5.326,0-9.643-4.318-9.643-9.646
		c0-5.327,4.317-9.646,9.643-9.646c1.291,0,2.521,0.255,3.646,0.715l3.183-7.688c-4.253-1.763-9.178-1.902-13.768,0
		C6.52,3.276,3.136,6.859,1.374,11.114s-1.901,9.182,0,13.773s5.482,7.977,9.735,9.739c4.253,1.763,9.179,1.901,13.768,0l-3.188-7.7
		C20.565,27.385,19.337,27.64,18.048,27.64"/>
	<path clip-path="url(#SVGID_2_)" fill="#005080" d="M26.953,14.288l7.661-3.174c-1.901-4.591-5.482-7.977-9.736-9.739l-3.183,7.688
		C24.067,10.033,25.968,11.921,26.953,14.288"/>
</g>
</svg>
